<svg xmlns="http://www.w3.org/2000/svg" xmlns:xlink="http://www.w3.org/1999/xlink" viewBox="0 0 54 60" enable-background="new 0 0 54 60"><defs><path id="4" d="m14.6 28.7l4.7 2.4v-20.1l-4.7-2.4v20.1m6.9-1.5l4.7 2.4v-20.1l-4.7-2.5v20.2m6.8-1.5l4.7 2.4v-20.2l-4.7-2.4v20.2m6.9-1.6l4.7 2.4v-20.1l-4.7-2.4v20.1"/><path id="5" d="m14.6 23.9c.1 0 .1 0 .2 0 1.5 0 3.1-.1 4.5-.4v-12.5l-4.7-2.4v15.3m6.9-.8c1.6-.4 3.2-1 4.7-1.7v-11.9l-4.7-2.5v16.1m6.8-2.8c1.7-1 3.3-2.2 4.7-3.5v-8.9l-4.7-2.4v14.8m6.9-5.8c2-2.4 3.6-5.1 4.7-8.1l-4.7-2.4v10.5"/><clipPath id="2"><use xlink:href="#5"/></clipPath><clipPath id="0"><use xlink:href="#4"/></clipPath><radialGradient id="3" cx="-399.1" cy="328.1" r="1.092" gradientTransform="matrix(24.4278 0 0-24.4278 9763.99 8011.92)" gradientUnits="userSpaceOnUse"><stop stop-color="#e50012"/><stop offset=".6" stop-color="#e50012"/><stop offset=".713" stop-color="#bc000b"/><stop offset=".839" stop-color="#940005"/><stop offset=".939" stop-color="#7c0001"/><stop offset="1" stop-color="#730000"/></radialGradient><radialGradient id="1" cx="-400.08" cy="330.07" r="1.092" gradientTransform="matrix(36.7723 0 0-36.7723 14725.44 12137.18)" gradientUnits="userSpaceOnUse"><stop stop-color="#ea601f"/><stop offset=".65" stop-color="#ea601f"/><stop offset=".75" stop-color="#e50012"/><stop offset="1" stop-color="#e50012"/></radialGradient></defs><path fill="#fff" d="m.2.2h53.5v59.5h-53.5z"/><path d="m53.5.5v59h-53v-59h53m.5-.5h-54v60h54v-60z"/><path fill="none" stroke="#000" stroke-width=".5" stroke-miterlimit="10" d="m0 48.5h54"/><g fill="#231815"><path d="m17.3 44.2c-1.1 0-1.8-.3-2.6-1.1l1.5-1.5c.3.3.5.5 1.1.5.7 0 1.2-.4 1.2-1.3v-6.2h2.4v6.3c0 2.2-1.8 3.3-3.6 3.3"/><path d="m27.3 40.7h-1.4v3.4h-2.4v-9.6h3.8c2.1 0 3.3 1.5 3.3 3.1 0 1.6-1.1 3.1-3.3 3.1m-.1-4.1h-1.3v1.9h1.3c.6 0 1-.5 1-1 .1-.4-.3-.9-1-.9"/><path d="m37.1 44.1l-1.5-2.9-1.6 2.9h-2.7l3-4.9-2.8-4.7h2.7l1.4 2.7 1.4-2.7h2.6l-2.8 4.7 3 4.9z"/></g><path clip-path="url(#0)" fill="url(#1)" d="m14.6 4h25.2v27.2h-25.2z"/><path clip-path="url(#2)" fill="url(#3)" d="m14.6 4h25.2v20h-25.2z"/><g fill="#231815"><path d="m7.8 55h1.3v.3h.6v-3.1h-2.2v-.4h3.2v-.6h-3.2v-.5c.1 0 .1-.1.1-.2 0-.1-.2-.1-.2-.1l-.6-.1v1h-3v.6h3.1v.4h-2.1v3.1h.6v-.4h1.3c-.3.4-.7.7-1.2.9-.5.3-1.1.6-1.9.8h-.1l.5.7h.1c.6-.2 1.1-.5 1.7-.8.5-.3.9-.5 1.2-.9v1.9h.6v-2c.8.7 1.8 1.2 3 1.6h.1l.4-.7h-.1c-1.3-.2-2.3-.8-3.2-1.5m-.3-2.2h1.6v.5h-1.6v-.5zm1.6 1.6h-1.6v-.5h1.6v.5m-2.2 0h-1.5v-.5h1.5v.5m0-1.1h-1.5v-.5h1.5v.5"/><path d="m11.5 51.6h3.1v.6h-3.1z"/><path d="m11.9 52.7h2.3v.6h-2.3z"/><path d="m11.9 50.5h2.3v.6h-2.3z"/><path d="m11.9 53.8h2.3v.6h-2.3z"/><path d="m17.2 54.3h1.3v-.6h-1.3v-2.1h1.7v-.6h-4.3v.6h1.9v5.1h-.8v-3.7c.1 0 .1-.1.1-.2 0 0 0-.1-.1-.1l-.7-.1v4.1h-.8v.6h4.8v-.6h-1.8v-2.4"/><path d="m11.8 57.7h.6v-.5h1.2v.4h.6v-2.6h-2.5v2.7zm1.9-1.1h-1.2v-1h1.2v1"/><path d="m19.8 53.4h6.8v.7h-6.8z"/><path d="m31.2 51.9h.7v-.6h-1.7v-.7c.1 0 .1-.1.1-.2 0 0 0-.1-.1-.1l-.7-.1v1.1h-1.7v.6h.6l.4 1.2h-1.3v.6h4.6v-.6h-1.3l.4-1.2m-2.1 0h1.3l-.3 1.2h-.6l-.4-1.2"/><path d="m33.9 53.5l.7-2c.1 0 .2-.1.2-.2 0-.1 0-.1-.1-.2l-.4-.3h-.1l-.2.1h-1.9v6.7h.6v-6.1h1l-.6 2.1h.1c.3.2.5.5.7.8.1.2.2.5.2.8 0 .4-.1.5-.1.6-.1.1-.2.1-.3.1h-.7l.2.7h.6c.3 0 .6-.1.8-.3.2-.2.3-.6.3-1 0-.4-.1-.7-.2-1-.2-.2-.5-.5-.8-.8"/><path d="m28.3 57.5h.7v-.7h1.6v.5h.6v-3.1h-2.9v3.3m2.3-1.3h-1.6v-1.3h1.6v1.3"/><path d="m39.4 53.4h2.6v-.7h-2.6v-1.7c.1 0 .1-.1.1-.2 0 0 0-.1-.1-.1l-.7-.1v5.8h-2.9v.6h7v-.7h-3.4v-2.9"/><path d="m51 54v-.6h-5v.6h1.3c-.2.4-.5.7-.8 1v-.6l-1 .5v-1.9h1.1v-.6h-1.1v-1.5c.1 0 .1-.1.1-.2 0 0 0-.1-.1-.1l-.7-.1v1.9h-1v.6h1v2l-1.2.5.3.6c.1.1.1.1.2.1.1 0 .2-.1.2-.3l1.9-.9c-.1 0-.1.1-.2.1l-.1.1.4.5h.1c.2-.1.4-.2.6-.4.2-.1.4-.3.6-.5h.5c-.1.3-.3.5-.6.7-.3.2-.7.4-1.1.5h-.1l.3.6h.1c1-.3 1.7-.9 2-1.7h.4c-.2.6-.5 1-.9 1.3-.5.3-1.1.5-2 .7h-.1l.3.6h.1c1-.2 1.8-.5 2.4-1 .4-.3.8-.9 1-1.7h.1l-.2 1.3c-.1.5-.2.6-.3.7-.1 0-.2.1-.4.1h-.8l.2.7h.6c.4 0 .6-.1.8-.2.2-.2.4-.5.4-1.1l.3-1.9v-.1h-3c.1-.1.1-.2.2-.4h3.2z"/><path d="m50.1 50.5h-3.4v2.6h3.4v-2.6m-2.8.6h2.1v.4h-2.1v-.4m0 1h2.1v.4h-2.1v-.4"/></g></svg>