<svg xmlns="http://www.w3.org/2000/svg" viewBox="0 0 268 30" enable-background="new 0 0 268 30"><g fill="#006057"><path d="m67.2 1v29h18.7v-29h-18.7m15.6 25.9h-12.5v-9.9h12.5v9.9m0-13.1h-12.5v-9.8h12.5v9.8"/><path d="m110.6 23.1c-3.6-2.1-7.5-8.8-9-14.1h9v-3.1h-10.1v-5.9h-3.1v5.9h-10.3v3.1h9.2c-1.5 5.3-5.4 12.1-9 14.1 0 .5 0 3 0 3.6 1.8-1 4-2.9 6-5.3v2.2h4.1v6.4h3.1v-6.3h4v-2.5c2 2.5 4.3 4.5 6.1 5.5 0-.6 0-3.1 0-3.6m-16.6-2.5c1.3-1.7 2.5-3.6 3.4-5.7v5.7h-3.4m6.6 0v-5.8c1 2.1 2.2 4.1 3.5 5.8h-3.5"/><path d="m115.7 0l6.6 21.8 7-21.8h3.7v30h-3.6v-18c0 0-.1 0-.1 0l-5.9 18h-2.3l-5.4-18c0 0-.1 0 0 0v18h-3.7v-30h3.7"/><path d="m154.9 25.6c.8-1.3.7-3.2.7-4.1v-.9h-2.6v1.7c0 .4 0 1.3-.3 1.8l-8.4-5.5c1.6 0 3.7 0 4.1 0 3.5 0 5.1-2.6 5.1-4.1 0-.2 0-1 0-1.1 0-2-1-4.9-5.4-4.9-1.2 0-6.2 0-6.7 0-3.5 0-5.1 2.6-5.1 4.1 0 .2 0 1.4 0 1.5 0 1.5 1 2.9 2.2 3.4-2.4.4-2.9 3.1-2.9 4.4 0 .5 0 1 0 1.5 0 5.1 2.8 6.1 7.7 6.1 1.5 0 4.7 0 6 0 3.1 0 3.6-.8 4.4-1.6l3.2 2.3v-3.2l-2-1.4m-13.5-14.8c.8 0 5.3 0 6.4 0 2.3 0 2.9 1.1 2.9 2.1 0 .4 0 .7 0 1.1 0 .1 0 .1 0 .2 0 1.1-1.1 2-2.4 2-.8 0-5 0-6.1 0-2.3 0-3.2-1.2-3.2-2.3 0-.2 0-1.1 0-1.2 0-1.1 1.1-1.9 2.4-1.9m5.3 16.1c-.9 0-3.8 0-4.5 0-3.2 0-3.9-1.5-4-3.6 0-1 0-1.1 0-1.7 0-1.1.9-2.6 2.4-2.6l10.5 7.1c-.4.7-2.7.8-4.4.8"/><path d="m169.1 6.5l3.6 13h-7.1l3.5-13m1.7-6.5h-3.3l-8.7 30h3.9l1.9-6.9h9.1l1.9 6.9h3.9l-8.7-30"/><path d="m195.9 17.5c2.7-4.9 3.2-6.8 3.5-8.8l.1-1.9-2.1.2-11.4.7v-7.7h-3.4v7.9l-4.3.3.2 3.4c0 0 1.7-.1 4.1-.3v11.4c0 3.5 1.9 7.1 6.1 7.3h10.3v-3.4h-10.4c-2.5-.1-2.7-3-2.7-3.8v-11.7c3.7-.2 7.7-.5 9.4-.6-.4 1.3-1.6 4.1-3.2 6.9l3.8.1"/><path d="m213.9 7.6c-2-.8-8.9-2-12.3-2l-.1 3.4c3.2.1 10.8 1.6 12.3 2.2l.1-3.6"/><path d="m221.1 6.3c0 4.3-2.8 20.1-16.7 20.1h-1.9v3.4h1.9c15.2 0 20.2-15.9 20.2-23.6h-3.5z"/><path d="m243.9 3.2h-12.9l-.1 1.2c-.7 5-3.6 8.8-5.7 9.2v3.8c1.6-.3 3.6-1.6 5.3-3.7 2.1.8 6.8 2.7 8.8 3.8-.7 1.4-1.6 2.7-2.6 3.9-2.7 3.1-5.9 4.8-9.6 5.1h-1.7v3.5h1.8c4.6-.3 8.8-2.5 12.1-6.3 5-5.8 6.3-13.3 6.4-18.8v-1.7h-1.8m-11.4 7.7c.7-1.3 1.2-2.7 1.4-4.2 1.9 0 6.2 0 8.3 0 0 2.3-.5 5-1.5 7.7-2.3-1.3-6-2.7-8.2-3.5"/><path d="m248 13h20v4h-20z"/><path d="m0 1h7v29h-7z"/><path d="m10 1h7v29h-7z"/><path d="m20 1h7v29h-7z"/><path d="m38.3 30h-8.5l11.2-29h8.5z"/><path d="M61 30 52.4 30 46 13.9 50.2 3z"/></g></svg>