<svg xmlns="http://www.w3.org/2000/svg" viewBox="0 0 160 18" enable-background="new 0 0 160 18"><g fill="#006152"><path d="m39 18h11v-17h-11v17m2-15h7v5h-7v-5m0 7h7v6h-7v-6"/><path d="m59 0h-2v3h-6v2.537l5.791-.021c-.888 3.147-3.734 7.291-5.859 8.503 0 .301.2 1.789.185 2.167 1.084-.59 1.882-1.955 3.882-3.39v1.628l2.231.071-.174 3.505h2.027l.011-3.525 2.433-.026.021-1.645c1.216 1.496 2.555 2.68 3.671 3.286-.014-.378 0-1.68 0-1.98-2.126-1.212-4.982-5.11-5.869-8.11h5.65v-3h-6v-3m-2 12.378l-1.92.02c.78-1.01.92-2.137 1.92-3.362v3.342m2-3.343c1 1.243 1.184 2.341 1.975 3.363l-1.975-.02v-3.343"/><path d="m72.15 13.252l-4.04-13.252h-2.11v18h2v-11.369l3.55 11.369h1.16l3.29-11.634v11.634h2v-18h-1.74z"/><path d="m92 12.964v.036h-2v.516c0 .246.178.544-.052.849l-4.894-3.365c.964 0 2.232 0 2.462 0 2.08 0 2.978-1.497 2.978-2.382 0-.129.014-.795.013-.896-.003-1.157-.56-2.722-3.212-2.722-.688 0-3.682 0-4.01 0-2.08 0-3.118 1.58-3.118 2.466 0 .13.005.895.005.947 0 .878.713 1.791 1.395 2.076-1.43.244-1.792 1.51-1.792 2.288 0 .283-.003.713-.003 1.023 0 2.991 1.67 4.201 4.601 4.201.878 0 2.786 0 3.569 0 1.87 0 1.877-.72 2.378-1.216l1.678 1.215v-1.866l-.849-.754c.488-.793.849-1.898.849-2.416m-10-4.467c0-.107-.063-.463-.063-.565 0-.643.645-.932 1.407-.932.478 0 3.194 0 3.818 0 1.356 0 1.717.699 1.717 1.301 0 .228.003-.301 0 .699h.007c-.002 0-.002-.078-.002-.047 0 .642-.66 1.047-1.423 1.047-.477 0-3.01 0-3.639 0-1.351 0-1.822-.892-1.822-1.494 0-.002 0-.006 0-.009m4.487 7.503c-.531 0-2.297 0-2.69 0-1.908 0-2.428-.86-2.446-2.061-.007-.565-.007-.569-.007-.927 0-.621.628-1.496 1.524-1.535l6.297 4.058c-.228.436-1.653.465-2.678.465"/><path d="m98.78 0l-5.268 18h2.245l1.28-4.204 5.442-.011 1.302 4.092 2.408-.055-5.502-17.822h-1.907m-1.358 11.64l2.307-7.69 2.302 7.733-4.609-.043"/><path d="m110 4.048v-4.048h-2v4.312l-2.779.163.224 2.028c0 0 .555-.064 2.555-.151v7.154c0 2.078.819 4.213 3.342 4.298l5.658-.018v-2.089l-5.559.019c-1.497-.052-1.441-1.749-1.441-2.269v-7.222c2-.136 4.527-.301 5.541-.364-.23.786-1.153 2.139-2.098 4.139h2.248c1.629-3 1.902-3.844 2.077-5.01l.032-.994h-1.271l-6.529.048"/><path d="m127 4.137c-1-.444-6-1.251-8-1.291v2.029c2 .039 7 1.032 8 1.377v-2.115"/><path d="m120.33 15h-1.333v2h1.389c9.111 0 12.136-9 12.136-13h-2.057c0 2-1.83 11-10.135 11"/><path d="m136.33 3.318c-.213 2.326-2.326 4.748-3.326 4.972v2.265c1-.158 2.189-1.051 3.225-2.265 1.248.45 3.987 1.577 5.203 2.216-.435.825-.957 1.717-1.567 2.421-1.602 1.853-3.883 3.073-6.06 3.073h-.802v1.829l1.349.056c2.777-.169 5.086-1.452 7.03-3.709 2.961-3.426 3.616-7.456 3.616-10.666v-1.387l-8.753-.019.079 1.214m1.83.682c1.126 0 3.721 0 4.951 0-.012 1-.304 3.01-.878 4.606-1.42-.745-3.624-1.618-4.937-2.104.402-.759.709-1.502.864-2.502"/><path d="m147 7.567v2.089l13 .027v-2.089z"/><path d="m0 1h4v17h-4z"/><path d="m5 1h4v17h-4z"/><path d="m10 1h4v17h-4z"/><path d="M22.939 1 16 18 21.11 18 28 1z"/><path d="m25.992 8.347l3.825 9.653h5.133l-6.437-15.726z"/></g></svg>